<svg width="1280" height="640" viewBox="0 0 1280 640" fill="none" xmlns="http://www.w3.org/2000/svg">
  <rect width="1280" height="640" fill="#07111F"/>
  <circle cx="1100" cy="80" r="260" fill="#1E3A8A" opacity="0.36"/>
  <circle cx="190" cy="560" r="260" fill="#0F766E" opacity="0.28"/>
  <rect x="54" y="54" width="1172" height="532" rx="36" fill="#0B1220" stroke="#26344F" stroke-width="2"/>

  <text x="96" y="126" fill="#8FB4FF" font-family="Helvetica, Arial, sans-serif" font-size="22" font-weight="700" letter-spacing="3">STOCK RESEARCH DESK</text>
  <text x="96" y="212" fill="#F8FAFC" font-family="Helvetica, Arial, sans-serif" font-size="64" font-weight="800">Multi-agent equity</text>
  <text x="96" y="286" fill="#F8FAFC" font-family="Helvetica, Arial, sans-serif" font-size="64" font-weight="800">research, shipped as</text>
  <text x="96" y="360" fill="#F8FAFC" font-family="Helvetica, Arial, sans-serif" font-size="64" font-weight="800">one clean DOCX.</text>

  <text x="100" y="426" fill="#BDD3F7" font-family="Helvetica, Arial, sans-serif" font-size="26">Evidence quality. Council debate.</text>
  <text x="100" y="466" fill="#BDD3F7" font-family="Helvetica, Arial, sans-serif" font-size="26">Scenarios and target prices with horizons.</text>

  <rect x="100" y="510" width="174" height="44" rx="22" fill="#12264A" stroke="#2F5593"/>
  <text x="132" y="539" fill="#D8E7FF" font-family="Helvetica, Arial, sans-serif" font-size="18" font-weight="700">Ticker memo</text>
  <rect x="296" y="510" width="190" height="44" rx="22" fill="#11352F" stroke="#2A6F61"/>
  <text x="326" y="539" fill="#D7FFF3" font-family="Helvetica, Arial, sans-serif" font-size="18" font-weight="700">Theme screen</text>
  <rect x="508" y="510" width="168" height="44" rx="22" fill="#34264D" stroke="#6D55A2"/>
  <text x="538" y="539" fill="#EFE5FF" font-family="Helvetica, Arial, sans-serif" font-size="18" font-weight="700">Watchlist</text>

  <g transform="translate(760 132)">
    <rect width="390" height="360" rx="28" fill="#0F1A2D" stroke="#31415F" stroke-width="2"/>
    <text x="34" y="58" fill="#F8FAFC" font-family="Helvetica, Arial, sans-serif" font-size="26" font-weight="800">Research pipeline</text>
    <line x1="54" y1="100" x2="54" y2="292" stroke="#36506F" stroke-width="4" stroke-linecap="round"/>
    <circle cx="54" cy="112" r="10" fill="#60A5FA"/>
    <circle cx="54" cy="172" r="10" fill="#34D399"/>
    <circle cx="54" cy="232" r="10" fill="#C084FC"/>
    <circle cx="54" cy="292" r="10" fill="#FBBF24"/>
    <text x="84" y="120" fill="#E6EDF8" font-family="Helvetica, Arial, sans-serif" font-size="22" font-weight="700">Evidence ranking</text>
    <text x="84" y="180" fill="#E6EDF8" font-family="Helvetica, Arial, sans-serif" font-size="22" font-weight="700">Agent council</text>
    <text x="84" y="240" fill="#E6EDF8" font-family="Helvetica, Arial, sans-serif" font-size="22" font-weight="700">Scenario engine</text>
    <text x="84" y="300" fill="#E6EDF8" font-family="Helvetica, Arial, sans-serif" font-size="22" font-weight="700">Price committee</text>
  </g>
</svg>
