<svg xmlns="http://www.w3.org/2000/svg" width="1200" height="420" viewBox="0 0 1200 420" fill="none">
  <rect width="1200" height="420" rx="28" fill="#0B1020"/>
  <rect x="24" y="24" width="1152" height="372" rx="24" fill="#11182C" stroke="#24304D"/>
  <text x="60" y="86" fill="#F7F9FC" font-family="Arial, Helvetica, sans-serif" font-size="34" font-weight="700">Stock Research Desk Workflow</text>
  <text x="60" y="118" fill="#95A3C3" font-family="Arial, Helvetica, sans-serif" font-size="18">One theme or one stock flows through screening, debate, scenarios, and document delivery.</text>

  <rect x="60" y="160" width="200" height="140" rx="20" fill="#17223A" stroke="#314160"/>
  <text x="86" y="202" fill="#EAF0FF" font-family="Arial, Helvetica, sans-serif" font-size="24" font-weight="700">Input</text>
  <text x="86" y="236" fill="#B8C4DE" font-family="Arial, Helvetica, sans-serif" font-size="18">Ticker</text>
  <text x="86" y="264" fill="#B8C4DE" font-family="Arial, Helvetica, sans-serif" font-size="18">Theme</text>
  <text x="86" y="292" fill="#B8C4DE" font-family="Arial, Helvetica, sans-serif" font-size="18">Watchlist trigger</text>

  <rect x="312" y="160" width="240" height="140" rx="20" fill="#1A2744" stroke="#35507A"/>
  <text x="338" y="202" fill="#EAF0FF" font-family="Arial, Helvetica, sans-serif" font-size="24" font-weight="700">Evidence Layer</text>
  <text x="338" y="236" fill="#B8C4DE" font-family="Arial, Helvetica, sans-serif" font-size="18">Web search first</text>
  <text x="338" y="264" fill="#B8C4DE" font-family="Arial, Helvetica, sans-serif" font-size="18">Source ranking</text>
  <text x="338" y="292" fill="#B8C4DE" font-family="Arial, Helvetica, sans-serif" font-size="18">Fallback on explicit errors</text>

  <rect x="604" y="160" width="254" height="140" rx="20" fill="#1B2E36" stroke="#2E5C66"/>
  <text x="630" y="202" fill="#EAF0FF" font-family="Arial, Helvetica, sans-serif" font-size="24" font-weight="700">Council Layer</text>
  <text x="630" y="236" fill="#B8C4DE" font-family="Arial, Helvetica, sans-serif" font-size="18">Support round</text>
  <text x="630" y="264" fill="#B8C4DE" font-family="Arial, Helvetica, sans-serif" font-size="18">Red-team round</text>
  <text x="630" y="292" fill="#B8C4DE" font-family="Arial, Helvetica, sans-serif" font-size="18">Reconsideration round</text>

  <rect x="910" y="160" width="230" height="140" rx="20" fill="#2A213E" stroke="#614587"/>
  <text x="936" y="202" fill="#EAF0FF" font-family="Arial, Helvetica, sans-serif" font-size="24" font-weight="700">Delivery</text>
  <text x="936" y="236" fill="#B8C4DE" font-family="Arial, Helvetica, sans-serif" font-size="18">Chinese DOCX</text>
  <text x="936" y="264" fill="#B8C4DE" font-family="Arial, Helvetica, sans-serif" font-size="18">English DOCX</text>
  <text x="936" y="292" fill="#B8C4DE" font-family="Arial, Helvetica, sans-serif" font-size="18">JSON + watchlist digest</text>

  <path d="M260 230H312" stroke="#5F7EB8" stroke-width="4" stroke-linecap="round"/>
  <path d="M552 230H604" stroke="#5F7EB8" stroke-width="4" stroke-linecap="round"/>
  <path d="M858 230H910" stroke="#5F7EB8" stroke-width="4" stroke-linecap="round"/>
  <circle cx="286" cy="230" r="5" fill="#8EACFF"/>
  <circle cx="578" cy="230" r="5" fill="#8EACFF"/>
  <circle cx="884" cy="230" r="5" fill="#8EACFF"/>
</svg>
